PathFileType	4	(x/y/z)	TRC_MarkerData\Passive\Passive_Pref0002.trc
DataRate	CameraRate	NumFrames	NumMarkers	Units	OrigDataRate	OrigDataStartFrame	OrigNumFrames
240	240	5	50	mm	240	190	303
Frame#	Time	R_AC			L_AC			HEAD			STERN			C7			L_IC			R_IC			L_ASIS			R_ASIS			L_GT			R_GT			L_PSIS			R_PSIS			SACRAL			L_LAT_KNEE			L_MED_KNEE			R_LAT_KNEE			R_MED_KNEE			L_LAT_ANK			L_MED_ANK			R_LAT_ANK			R_MED_ANK			L_THIGH_PROX_POST			L_THIGH_PROX_ANT			L_THIGH_DIST_ANT			L_THIGH_DIST_POST			R_THIGH_PROX_POST			R_THIGH_PROX_ANT			R_THIGH_DIST_ANT			R_THIGH_DIST_POST			L_SHANK_PROX_POST			L_SHANK_PROX_ANT			L_SHANK_DIST_ANT			L_SHANK_DIST_POST			R_SHANK_PROX_POST			R_SHANK_PROX_ANT			R_SHANK_DIST_ANT			R_SHANK_DIST_POST			L_HEEL_LAT			L_HEEL_SUP			L_HEEL_MED			R_HEEL_LAT			R_HEEL_SUP			R_HEEL_MED			L_1ST_MET			L_5TH_MET			L_TOE			R_1ST_MET			R_5TH_MET			R_TOE			
		X1	Y1	Z1	X2	Y2	Z2	X3	Y3	Z3	X4	Y4	Z4	X5	Y5	Z5	X6	Y6	Z6	X7	Y7	Z7	X8	Y8	Z8	X9	Y9	Z9	X10	Y10	Z10	X11	Y11	Z11	X12	Y12	Z12	X13	Y13	Z13	X14	Y14	Z14	X15	Y15	Z15	X16	Y16	Z16	X17	Y17	Z17	X18	Y18	Z18	X19	Y19	Z19	X20	Y20	Z20	X21	Y21	Z21	X22	Y22	Z22	X23	Y23	Z23	X24	Y24	Z24	X25	Y25	Z25	X26	Y26	Z26	X27	Y27	Z27	X28	Y28	Z28	X29	Y29	Z29	X30	Y30	Z30	X31	Y31	Z31	X32	Y32	Z32	X33	Y33	Z33	X34	Y34	Z34	X35	Y35	Z35	X36	Y36	Z36	X37	Y37	Z37	X38	Y38	Z38	X39	Y39	Z39	X40	Y40	Z40	X41	Y41	Z41	X42	Y42	Z42	X43	Y43	Z43	X44	Y44	Z44	X45	Y45	Z45	X46	Y46	Z46	X47	Y47	Z47	X48	Y48	Z48	X49	Y49	Z49	X50	Y50	Z50	
 
190	0.79011	141.86	1493.9	515.9	137.38	1527	125.62	240.28	1814.7	343.49	238.48	1473.4	320.15	92.85	1555.7	325.85	136.71	1068.5	142.37	152.65	1083.2	485.75	195.69	994.03	170.48	223.48	1019.6	438.14	97.136	917.15	129.96	155.67	947.2	500.35	0.77482	1025.4	276.32	15.622	1028.9	384.92	-6.2921	1002	333.97	44.15	508.58	152.66	69.422	501.34	286.03	304.73	546.97	446.44	307.87	554.72	318.32	-336.63	265.08	189.32	-333.18	269.27	267.95	264.76	95.596	389.91	290.92	112.82	290.53	54.143	773.54	146.78	117.69	759.16	137.62	107.53	684.37	144.22	44.351	699.47	153.05	198.86	769.38	488.7	262.52	793.15	489.69	281.9	722.14	477.5	217.52	698.1	471.22	6.389	469.99	162.97	46.063	447.63	172.69	8.1563	415.15	181.49	-36.905	439.78	170.39	235.52	387.57	441.01	305.09	396.42	450.27	311.63	323.75	436.22	243.44	312.36	427.7	-433.58	263.04	195.07	-420.4	287.16	230.31	-438.02	261.15	262.47	200.84	39.681	361.91	195.83	64.3	325.5	214.06	36.973	295.17	-281.79	97.347	284.98	-299.72	104.95	179.76	-240.03	65.322	260.16	445.08	48.649	311.68	404.35	39.657	418.57	485.18	61.284	364.97
191	0.79429	147.37	1495	516.16	142.37	1527.8	125.82	245.98	1815.6	344.02	243.82	1474.5	320.34	98.27	1556.7	326.15	142.31	1069.4	143	158.39	1084.3	486.39	201.78	995.31	171.28	229.14	1020.4	438.97	103.75	917.95	130.51	161.23	947.86	500.92	6.5379	1026	276.87	21.328	1029.8	385.52	-0.52098	1002.7	334.56	54.842	509.11	152	80.415	501.59	285.31	307.78	546.8	446.71	311.19	554.61	318.55	-327.54	268.16	189.37	-323.85	272.27	268.02	265	95.751	389.78	291.18	112.83	290.41	62.425	773.79	146.94	126.18	760.13	137.73	116.78	685.17	144.07	53.344	699.5	153	203.55	769.8	489.03	267.27	793.14	490.2	286.14	722.05	477.88	221.68	698.42	471.55	16.727	470.67	162.48	56.39	448.12	171.97	18.287	415.87	180.84	-26.634	440.82	169.88	237.48	387.87	440.97	307.1	396.24	450.4	313.18	323.55	436.3	244.95	312.64	427.63	-424.5	266.77	195.34	-411.12	290.84	230.55	-428.77	264.85	262.78	200.95	39.887	361.91	195.98	64.487	325.5	214.19	37.126	295.18	-273.59	99.952	284.71	-291.73	107.78	179.54	-232.1	67.668	259.77	445.19	48.173	311.58	404.46	39.512	418.59	485.28	60.747	364.86
192	0.79847	152.86	1496.2	516.41	147.31	1528.7	125.99	251.67	1816.6	344.52	249.13	1475.7	320.52	103.67	1557.8	326.43	147.88	1070.2	143.63	164.11	1085.4	487.03	207.82	996.65	172.06	234.78	1021.3	439.78	110.33	918.83	131.04	166.74	948.55	501.48	12.274	1026.6	277.42	27.003	1030.7	386.11	5.2175	1003.5	335.14	65.562	509.77	151.33	91.413	501.98	284.58	310.72	546.64	447	314.4	554.5	318.8	-318.24	271.09	189.39	-314.33	275.12	268.06	265.24	95.905	389.67	291.43	112.86	290.33	70.685	774.13	147.07	134.62	761.21	137.8	126	686.08	143.89	62.32	699.64	152.94	208.15	770.23	489.35	271.94	793.15	490.71	290.29	721.99	478.26	225.76	698.75	471.9	27.119	471.45	161.96	66.783	448.73	171.24	28.507	416.69	180.18	-16.287	441.92	169.35	239.35	388.17	440.98	309.01	396.08	450.57	314.65	323.38	436.41	246.39	312.92	427.59	-415.19	270.29	195.57	-401.64	294.29	230.75	-419.31	268.34	263.05	201.04	40.093	361.91	196.12	64.681	325.5	214.31	37.289	295.19	-265.07	102.47	284.44	-283.4	110.5	179.32	-223.83	69.963	259.37	445.29	47.754	311.5	404.55	39.378	418.61	485.37	60.252	364.79
193	0.80265	158.3	1497.5	516.65	152.22	1529.6	126.15	257.34	1817.6	344.98	254.42	1476.9	320.68	109.04	1558.9	326.7	153.43	1071.2	144.26	169.81	1086.5	487.66	213.83	998.05	172.82	240.39	1022.2	440.58	116.86	919.8	131.55	172.2	949.26	502.01	17.986	1027.3	277.95	32.65	1031.7	386.68	10.926	1004.4	335.7	76.305	510.53	150.66	102.41	502.51	283.86	313.54	546.49	447.31	317.5	554.39	319.08	-308.72	273.86	189.37	-304.61	277.82	268.06	265.46	96.058	389.59	291.66	112.91	290.27	78.923	774.58	147.19	143.03	762.38	137.85	135.19	687.11	143.69	71.282	699.91	152.86	212.68	770.68	489.68	276.55	793.17	491.21	294.34	721.94	478.64	229.76	699.11	472.25	37.563	472.31	161.44	77.236	449.45	170.51	38.81	417.6	179.52	-5.8721	443.07	168.82	241.13	388.48	441.02	310.83	395.94	450.77	316.05	323.23	436.55	247.76	313.21	427.58	-405.68	273.56	195.75	-391.96	297.5	230.89	-409.64	271.58	263.26	201.14	40.303	361.92	196.26	64.885	325.51	214.43	37.467	295.22	-256.23	104.89	284.16	-274.75	113.09	179.08	-215.21	72.191	258.98	445.4	47.385	311.44	404.63	39.25	418.65	485.46	59.791	364.74
194	0.80683	163.72	1498.8	516.88	157.09	1530.5	126.29	263	1818.6	345.4	259.69	1478.1	320.84	114.38	1560	326.94	158.98	1072.2	144.89	175.48	1087.7	488.28	219.79	999.52	173.54	245.97	1023.1	441.36	123.35	920.86	132.02	177.61	949.99	502.53	23.68	1028	278.48	38.27	1032.6	387.22	16.607	1005.3	336.24	87.064	511.4	149.98	113.4	503.17	283.14	316.26	546.37	447.64	320.49	554.27	319.4	-299.02	276.46	189.31	-294.71	280.35	268.01	265.67	96.21	389.53	291.89	112.98	290.25	87.139	775.12	147.27	151.39	763.63	137.86	144.35	688.24	143.47	80.235	700.28	152.76	217.12	771.16	490.01	281.1	793.2	491.71	298.31	721.9	479.03	233.68	699.49	472.63	48.061	473.26	160.9	87.745	450.28	169.78	49.191	418.59	178.86	4.6051	444.27	168.27	242.82	388.78	441.09	312.55	395.82	451	317.38	323.1	436.73	249.06	313.5	427.6	-395.96	276.58	195.88	-382.1	300.47	231	-399.79	274.58	263.43	201.23	40.516	361.93	196.39	65.1	325.52	214.56	37.659	295.25	-247.08	107.19	283.86	-265.78	115.55	178.82	-206.26	74.332	258.57	445.51	47.06	311.4	404.71	39.125	418.7	485.55	59.355	364.72
